<svg width="228" height="54" viewBox="0 0 228 54" fill="none" xmlns="http://www.w3.org/2000/svg">
<mask id="path-1-outside-1_66_2160" maskUnits="userSpaceOnUse" x="-2" y="11" width="232" height="38" fill="black">
<rect fill="white" x="-2" y="11" width="232" height="38"/>
<path d="M7.99997 45C7.09523 45 6.24532 44.767 5.45024 44.3009C4.65517 43.8074 3.96976 43.1631 3.39401 42.368C2.84568 41.5455 2.47556 40.6271 2.28365 39.6127H25.7658C25.9029 39.6127 26.0126 39.5715 26.0948 39.4893C26.2045 39.3796 26.2593 39.2563 26.2593 39.1192V33.6496C26.2593 33.5125 26.2045 33.4029 26.0948 33.3206C26.0126 33.2109 25.9029 33.1561 25.7658 33.1561H7.99997C6.93073 33.1561 5.97116 32.8956 5.12125 32.3747C4.27134 31.8538 3.58593 31.1684 3.06502 30.3185C2.5441 29.4412 2.28365 28.4816 2.28365 27.4398V21.0655C2.28365 19.9962 2.5441 19.0366 3.06502 18.1867C3.58593 17.3368 4.27134 16.6651 5.12125 16.1716C5.97116 15.6507 6.93073 15.3903 7.99997 15.3903H25.9714C27.0133 15.3903 27.9591 15.6507 28.809 16.1716C29.6589 16.6651 30.3444 17.3368 30.8653 18.1867C31.3862 19.0366 31.6466 19.9962 31.6466 21.0655V39.3248C31.6466 40.3666 31.3862 41.3125 30.8653 42.1624C30.3444 43.0123 29.6589 43.6977 28.809 44.2186C27.9591 44.7395 27.0133 45 25.9714 45H7.99997ZM8.2056 27.7277H26.2593V21.2711C26.2593 21.134 26.2045 21.0243 26.0948 20.9421C26.0126 20.8324 25.9029 20.7776 25.7658 20.7776H8.2056C8.06851 20.7776 7.94514 20.8324 7.83547 20.9421C7.75322 21.0243 7.7121 21.134 7.7121 21.2711V27.2342C7.7121 27.3712 7.75322 27.4946 7.83547 27.6043C7.94514 27.6865 8.06851 27.7277 8.2056 27.7277ZM42.0563 45C41.1516 45 40.3017 44.767 39.5066 44.3009C38.7115 43.8074 38.0261 43.1631 37.4503 42.368C36.902 41.5455 36.5319 40.6271 36.34 39.6127H59.8221C59.9592 39.6127 60.0689 39.5715 60.1511 39.4893C60.2608 39.3796 60.3156 39.2563 60.3156 39.1192V33.6496C60.3156 33.5125 60.2608 33.4029 60.1511 33.3206C60.0689 33.2109 59.9592 33.1561 59.8221 33.1561H42.0563C40.9871 33.1561 40.0275 32.8956 39.1776 32.3747C38.3277 31.8538 37.6423 31.1684 37.1214 30.3185C36.6004 29.4412 36.34 28.4816 36.34 27.4398V21.0655C36.34 19.9962 36.6004 19.0366 37.1214 18.1867C37.6423 17.3368 38.3277 16.6651 39.1776 16.1716C40.0275 15.6507 40.9871 15.3903 42.0563 15.3903H60.0278C61.0696 15.3903 62.0155 15.6507 62.8654 16.1716C63.7153 16.6651 64.4007 17.3368 64.9216 18.1867C65.4425 19.0366 65.703 19.9962 65.703 21.0655V39.3248C65.703 40.3666 65.4425 41.3125 64.9216 42.1624C64.4007 43.0123 63.7153 43.6977 62.8654 44.2186C62.0155 44.7395 61.0696 45 60.0278 45H42.0563ZM42.2619 27.7277H60.3156V21.2711C60.3156 21.134 60.2608 21.0243 60.1511 20.9421C60.0689 20.8324 59.9592 20.7776 59.8221 20.7776H42.2619C42.1248 20.7776 42.0015 20.8324 41.8918 20.9421C41.8096 21.0243 41.7684 21.134 41.7684 21.2711V27.2342C41.7684 27.3712 41.8096 27.4946 41.8918 27.6043C42.0015 27.6865 42.1248 27.7277 42.2619 27.7277ZM80.4307 45L69.6561 15.3903H75.4135L82.5692 34.9245L89.7249 15.3903H95.03L102.186 34.9245L109.3 15.3903H115.099L104.324 45H100.047L92.3569 24.0264L84.7077 45H80.4307ZM118.418 45V15.3903H123.805V45H118.418ZM127.789 45V15.3903H133.752L151.929 37.0218V15.3903H157.399V45H151.436L133.217 23.3273V45H127.789ZM167.722 45C166.68 45 165.721 44.7395 164.844 44.2186C163.994 43.6977 163.308 43.0123 162.787 42.1624C162.266 41.2851 162.006 40.3255 162.006 39.2837V21.1066C162.006 20.0648 162.266 19.1189 162.787 18.269C163.308 17.3917 163.994 16.6925 164.844 16.1716C165.721 15.6507 166.68 15.3903 167.722 15.3903H185.858C186.9 15.3903 187.86 15.6507 188.737 16.1716C189.614 16.6925 190.313 17.3917 190.834 18.269C191.355 19.1189 191.616 20.0648 191.616 21.1066V23.4096H186.146V21.3533C186.146 21.2163 186.091 21.1066 185.982 21.0243C185.872 20.9147 185.749 20.8598 185.611 20.8598H167.928C167.791 20.8598 167.667 20.9147 167.558 21.0243C167.476 21.1066 167.434 21.2163 167.434 21.3533V39.0369C167.434 39.174 167.476 39.2974 167.558 39.407C167.667 39.4893 167.791 39.5304 167.928 39.5304H185.611C185.749 39.5304 185.872 39.4893 185.982 39.407C186.091 39.2974 186.146 39.174 186.146 39.0369V33.6907H179.443V28.2211H191.616V39.2837C191.616 40.3255 191.355 41.2851 190.834 42.1624C190.313 43.0123 189.614 43.6977 188.737 44.2186C187.86 44.7395 186.9 45 185.858 45H167.722ZM201.777 45C200.735 45 199.775 44.7395 198.898 44.2186C198.048 43.6977 197.363 43.0123 196.842 42.1624C196.321 41.2851 196.06 40.3255 196.06 39.2837V21.1066C196.06 20.0648 196.321 19.1189 196.842 18.269C197.363 17.3917 198.048 16.6925 198.898 16.1716C199.775 15.6507 200.735 15.3903 201.777 15.3903H219.954C220.996 15.3903 221.941 15.6507 222.791 16.1716C223.669 16.6925 224.368 17.3917 224.889 18.269C225.41 19.1189 225.67 20.0648 225.67 21.1066V39.2837C225.67 40.3255 225.41 41.2851 224.889 42.1624C224.368 43.0123 223.669 43.6977 222.791 44.2186C221.941 44.7395 220.996 45 219.954 45H201.777ZM201.982 39.5304H219.666C219.803 39.5304 219.926 39.4893 220.036 39.407C220.146 39.2974 220.201 39.174 220.201 39.0369V21.3533C220.201 21.2163 220.146 21.1066 220.036 21.0243C219.926 20.9147 219.803 20.8598 219.666 20.8598H201.982C201.845 20.8598 201.722 20.9147 201.612 21.0243C201.53 21.1066 201.489 21.2163 201.489 21.3533V39.0369C201.489 39.174 201.53 39.2974 201.612 39.407C201.722 39.4893 201.845 39.5304 201.982 39.5304Z"/>
</mask>
<path d="M7.99997 45C7.09523 45 6.24532 44.767 5.45024 44.3009C4.65517 43.8074 3.96976 43.1631 3.39401 42.368C2.84568 41.5455 2.47556 40.6271 2.28365 39.6127H25.7658C25.9029 39.6127 26.0126 39.5715 26.0948 39.4893C26.2045 39.3796 26.2593 39.2563 26.2593 39.1192V33.6496C26.2593 33.5125 26.2045 33.4029 26.0948 33.3206C26.0126 33.2109 25.9029 33.1561 25.7658 33.1561H7.99997C6.93073 33.1561 5.97116 32.8956 5.12125 32.3747C4.27134 31.8538 3.58593 31.1684 3.06502 30.3185C2.5441 29.4412 2.28365 28.4816 2.28365 27.4398V21.0655C2.28365 19.9962 2.5441 19.0366 3.06502 18.1867C3.58593 17.3368 4.27134 16.6651 5.12125 16.1716C5.97116 15.6507 6.93073 15.3903 7.99997 15.3903H25.9714C27.0133 15.3903 27.9591 15.6507 28.809 16.1716C29.6589 16.6651 30.3444 17.3368 30.8653 18.1867C31.3862 19.0366 31.6466 19.9962 31.6466 21.0655V39.3248C31.6466 40.3666 31.3862 41.3125 30.8653 42.1624C30.3444 43.0123 29.6589 43.6977 28.809 44.2186C27.9591 44.7395 27.0133 45 25.9714 45H7.99997ZM8.2056 27.7277H26.2593V21.2711C26.2593 21.134 26.2045 21.0243 26.0948 20.9421C26.0126 20.8324 25.9029 20.7776 25.7658 20.7776H8.2056C8.06851 20.7776 7.94514 20.8324 7.83547 20.9421C7.75322 21.0243 7.7121 21.134 7.7121 21.2711V27.2342C7.7121 27.3712 7.75322 27.4946 7.83547 27.6043C7.94514 27.6865 8.06851 27.7277 8.2056 27.7277ZM42.0563 45C41.1516 45 40.3017 44.767 39.5066 44.3009C38.7115 43.8074 38.0261 43.1631 37.4503 42.368C36.902 41.5455 36.5319 40.6271 36.34 39.6127H59.8221C59.9592 39.6127 60.0689 39.5715 60.1511 39.4893C60.2608 39.3796 60.3156 39.2563 60.3156 39.1192V33.6496C60.3156 33.5125 60.2608 33.4029 60.1511 33.3206C60.0689 33.2109 59.9592 33.1561 59.8221 33.1561H42.0563C40.9871 33.1561 40.0275 32.8956 39.1776 32.3747C38.3277 31.8538 37.6423 31.1684 37.1214 30.3185C36.6004 29.4412 36.34 28.4816 36.34 27.4398V21.0655C36.34 19.9962 36.6004 19.0366 37.1214 18.1867C37.6423 17.3368 38.3277 16.6651 39.1776 16.1716C40.0275 15.6507 40.9871 15.3903 42.0563 15.3903H60.0278C61.0696 15.3903 62.0155 15.6507 62.8654 16.1716C63.7153 16.6651 64.4007 17.3368 64.9216 18.1867C65.4425 19.0366 65.703 19.9962 65.703 21.0655V39.3248C65.703 40.3666 65.4425 41.3125 64.9216 42.1624C64.4007 43.0123 63.7153 43.6977 62.8654 44.2186C62.0155 44.7395 61.0696 45 60.0278 45H42.0563ZM42.2619 27.7277H60.3156V21.2711C60.3156 21.134 60.2608 21.0243 60.1511 20.9421C60.0689 20.8324 59.9592 20.7776 59.8221 20.7776H42.2619C42.1248 20.7776 42.0015 20.8324 41.8918 20.9421C41.8096 21.0243 41.7684 21.134 41.7684 21.2711V27.2342C41.7684 27.3712 41.8096 27.4946 41.8918 27.6043C42.0015 27.6865 42.1248 27.7277 42.2619 27.7277ZM80.4307 45L69.6561 15.3903H75.4135L82.5692 34.9245L89.7249 15.3903H95.03L102.186 34.9245L109.3 15.3903H115.099L104.324 45H100.047L92.3569 24.0264L84.7077 45H80.4307ZM118.418 45V15.3903H123.805V45H118.418ZM127.789 45V15.3903H133.752L151.929 37.0218V15.3903H157.399V45H151.436L133.217 23.3273V45H127.789ZM167.722 45C166.68 45 165.721 44.7395 164.844 44.2186C163.994 43.6977 163.308 43.0123 162.787 42.1624C162.266 41.2851 162.006 40.3255 162.006 39.2837V21.1066C162.006 20.0648 162.266 19.1189 162.787 18.269C163.308 17.3917 163.994 16.6925 164.844 16.1716C165.721 15.6507 166.68 15.3903 167.722 15.3903H185.858C186.9 15.3903 187.86 15.6507 188.737 16.1716C189.614 16.6925 190.313 17.3917 190.834 18.269C191.355 19.1189 191.616 20.0648 191.616 21.1066V23.4096H186.146V21.3533C186.146 21.2163 186.091 21.1066 185.982 21.0243C185.872 20.9147 185.749 20.8598 185.611 20.8598H167.928C167.791 20.8598 167.667 20.9147 167.558 21.0243C167.476 21.1066 167.434 21.2163 167.434 21.3533V39.0369C167.434 39.174 167.476 39.2974 167.558 39.407C167.667 39.4893 167.791 39.5304 167.928 39.5304H185.611C185.749 39.5304 185.872 39.4893 185.982 39.407C186.091 39.2974 186.146 39.174 186.146 39.0369V33.6907H179.443V28.2211H191.616V39.2837C191.616 40.3255 191.355 41.2851 190.834 42.1624C190.313 43.0123 189.614 43.6977 188.737 44.2186C187.86 44.7395 186.9 45 185.858 45H167.722ZM201.777 45C200.735 45 199.775 44.7395 198.898 44.2186C198.048 43.6977 197.363 43.0123 196.842 42.1624C196.321 41.2851 196.06 40.3255 196.06 39.2837V21.1066C196.06 20.0648 196.321 19.1189 196.842 18.269C197.363 17.3917 198.048 16.6925 198.898 16.1716C199.775 15.6507 200.735 15.3903 201.777 15.3903H219.954C220.996 15.3903 221.941 15.6507 222.791 16.1716C223.669 16.6925 224.368 17.3917 224.889 18.269C225.41 19.1189 225.67 20.0648 225.67 21.1066V39.2837C225.67 40.3255 225.41 41.2851 224.889 42.1624C224.368 43.0123 223.669 43.6977 222.791 44.2186C221.941 44.7395 220.996 45 219.954 45H201.777ZM201.982 39.5304H219.666C219.803 39.5304 219.926 39.4893 220.036 39.407C220.146 39.2974 220.201 39.174 220.201 39.0369V21.3533C220.201 21.2163 220.146 21.1066 220.036 21.0243C219.926 20.9147 219.803 20.8598 219.666 20.8598H201.982C201.845 20.8598 201.722 20.9147 201.612 21.0243C201.53 21.1066 201.489 21.2163 201.489 21.3533V39.0369C201.489 39.174 201.53 39.2974 201.612 39.407C201.722 39.4893 201.845 39.5304 201.982 39.5304Z" fill="#100427"/>
<path d="M5.45024 44.3009L3.59393 47.2916L3.63173 47.3151L3.67011 47.3376L5.45024 44.3009ZM3.39401 42.368L0.465196 44.3206L0.503022 44.3773L0.543017 44.4325L3.39401 42.368ZM2.28365 39.6127V36.0927H-1.96474L-1.175 40.267L2.28365 39.6127ZM26.0948 39.4893L28.5838 41.9783L28.5838 41.9783L26.0948 39.4893ZM26.0948 33.3206L23.2788 35.4326L23.5805 35.8349L23.9828 36.1366L26.0948 33.3206ZM3.06502 30.3185L0.0383271 32.1156L0.0509445 32.1369L0.063859 32.1579L3.06502 30.3185ZM3.06502 18.1867L6.06617 20.0262L6.06617 20.0262L3.06502 18.1867ZM5.12125 16.1716L6.88877 19.2157L6.92497 19.1947L6.96067 19.1728L5.12125 16.1716ZM28.809 16.1716L26.9696 19.1728L27.0053 19.1947L27.0415 19.2157L28.809 16.1716ZM30.8653 18.1867L27.8641 20.0262L27.8641 20.0262L30.8653 18.1867ZM30.8653 42.1624L27.8641 40.323L27.8641 40.323L30.8653 42.1624ZM28.809 44.2186L26.9696 41.2175L26.9696 41.2175L28.809 44.2186ZM26.2593 27.7277V31.2477H29.7793V27.7277H26.2593ZM26.0948 20.9421L23.2788 23.0541L23.5805 23.4564L23.9828 23.7581L26.0948 20.9421ZM7.83547 20.9421L5.34645 18.4531L5.34645 18.4531L7.83547 20.9421ZM7.83547 27.6043L5.01947 29.7163L5.32119 30.1186L5.72348 30.4203L7.83547 27.6043ZM7.99997 41.48C7.73316 41.48 7.49616 41.42 7.23038 41.2642L3.67011 47.3376C4.99448 48.1139 6.4573 48.52 7.99997 48.52V41.48ZM7.30656 41.3101C6.91897 41.0696 6.56588 40.7466 6.24501 40.3035L0.543017 44.4325C1.37364 45.5796 2.39137 46.5452 3.59393 47.2916L7.30656 41.3101ZM6.32283 40.4155C6.04798 40.0032 5.85042 39.5299 5.7423 38.9583L-1.175 40.267C-0.899294 41.7243 -0.356615 43.0879 0.465196 44.3206L6.32283 40.4155ZM2.28365 43.1327H25.7658V36.0927H2.28365V43.1327ZM25.7658 43.1327C26.6571 43.1327 27.7246 42.8376 28.5838 41.9783L23.6058 37.0003C24.3005 36.3055 25.1487 36.0927 25.7658 36.0927V43.1327ZM28.5838 41.9783C29.2591 41.303 29.7793 40.3155 29.7793 39.1192H22.7393C22.7393 38.703 22.8258 38.2803 23.0016 37.8849C23.1737 37.4977 23.4 37.2061 23.6058 37.0003L28.5838 41.9783ZM29.7793 39.1192V33.6496H22.7393V39.1192H29.7793ZM29.7793 33.6496C29.7793 32.4046 29.2028 31.2516 28.2068 30.5046L23.9828 36.1366C23.6526 35.889 23.3144 35.5278 23.0698 35.0387C22.8253 34.5496 22.7393 34.0623 22.7393 33.6496H29.7793ZM28.9108 31.2086C28.1638 30.2126 27.0108 29.6361 25.7658 29.6361V36.6761C25.3531 36.6761 24.8658 36.5902 24.3767 36.3456C23.8876 36.1011 23.5264 35.7628 23.2788 35.4326L28.9108 31.2086ZM25.7658 29.6361H7.99997V36.6761H25.7658V29.6361ZM7.99997 29.6361C7.53095 29.6361 7.21665 29.5305 6.96067 29.3736L3.28183 35.3759C4.72567 36.2608 6.33052 36.6761 7.99997 36.6761V29.6361ZM6.96067 29.3736C6.58422 29.1429 6.2969 28.8555 6.06617 28.4791L0.063859 32.1579C0.874958 33.4813 1.95846 34.5648 3.28183 35.3759L6.96067 29.3736ZM6.0917 28.5214C5.90077 28.1998 5.80365 27.8631 5.80365 27.4398H-1.23635C-1.23635 29.1001 -0.812563 30.6825 0.0383271 32.1156L6.0917 28.5214ZM5.80365 27.4398V21.0655H-1.23635V27.4398H5.80365ZM5.80365 21.0655C5.80365 20.5964 5.90928 20.2821 6.06617 20.0262L0.0638606 16.3473C-0.821074 17.7912 -1.23635 19.396 -1.23635 21.0655H5.80365ZM6.06617 20.0262C6.28665 19.6664 6.55106 19.4118 6.88877 19.2157L3.35373 13.1276C1.99162 13.9185 0.885206 15.0072 0.063859 16.3473L6.06617 20.0262ZM6.96067 19.1728C7.21665 19.0159 7.53095 18.9103 7.99997 18.9103V11.8703C6.33052 11.8703 4.72567 12.2855 3.28183 13.1705L6.96067 19.1728ZM7.99997 18.9103H25.9714V11.8703H7.99997V18.9103ZM25.9714 18.9103C26.3947 18.9103 26.6989 19.0068 26.9696 19.1728L30.6485 13.1705C29.2194 12.2946 27.6318 11.8703 25.9714 11.8703V18.9103ZM27.0415 19.2157C27.3792 19.4118 27.6436 19.6664 27.8641 20.0262L33.8664 16.3473C33.0451 15.0072 31.9387 13.9185 30.5766 13.1276L27.0415 19.2157ZM27.8641 20.0262C28.021 20.2821 28.1266 20.5964 28.1266 21.0655H35.1666C35.1666 19.396 34.7514 17.7912 33.8664 16.3473L27.8641 20.0262ZM28.1266 21.0655V39.3248H35.1666V21.0655H28.1266ZM28.1266 39.3248C28.1266 39.7481 28.0301 40.0522 27.8641 40.323L33.8664 44.0018C34.7423 42.5728 35.1666 40.9852 35.1666 39.3248H28.1266ZM27.8641 40.323C27.6334 40.6994 27.3461 40.9867 26.9696 41.2175L30.6485 47.2198C31.9718 46.4087 33.0553 45.3252 33.8664 44.0018L27.8641 40.323ZM26.9696 41.2175C26.6989 41.3834 26.3947 41.48 25.9714 41.48V48.52C27.6318 48.52 29.2194 48.0957 30.6485 47.2198L26.9696 41.2175ZM25.9714 41.48H7.99997V48.52H25.9714V41.48ZM8.2056 31.2477H26.2593V24.2077H8.2056V31.2477ZM29.7793 27.7277V21.2711H22.7393V27.7277H29.7793ZM29.7793 21.2711C29.7793 20.0261 29.2028 18.8731 28.2068 18.1261L23.9828 23.7581C23.6526 23.5105 23.3143 23.1493 23.0698 22.6602C22.8253 22.1711 22.7393 21.6838 22.7393 21.2711H29.7793ZM28.9108 18.8301C28.1638 17.8341 27.0108 17.2576 25.7658 17.2576V24.2976C25.3531 24.2976 24.8658 24.2116 24.3767 23.9671C23.8876 23.7226 23.5264 23.3843 23.2788 23.0541L28.9108 18.8301ZM25.7658 17.2576H8.2056V24.2976H25.7658V17.2576ZM8.2056 17.2576C7.00929 17.2576 6.02174 17.7778 5.34645 18.4531L10.3245 23.4311C10.1187 23.6369 9.82709 23.8632 9.43986 24.0353C9.04443 24.2111 8.62178 24.2976 8.2056 24.2976V17.2576ZM5.34645 18.4531C4.48722 19.3123 4.1921 20.3798 4.1921 21.2711H11.2321C11.2321 21.8882 11.0192 22.7364 10.3245 23.4311L5.34645 18.4531ZM4.1921 21.2711V27.2342H11.2321V21.2711H4.1921ZM4.1921 27.2342C4.1921 28.1329 4.48025 28.9973 5.01947 29.7163L10.6515 25.4923C11.0262 25.9919 11.2321 26.6096 11.2321 27.2342H4.1921ZM5.72348 30.4203C6.44244 30.9595 7.30689 31.2477 8.2056 31.2477V24.2077C8.83013 24.2077 9.44784 24.4136 9.94747 24.7883L5.72348 30.4203ZM39.5066 44.3009L37.6503 47.2916L37.6881 47.3151L37.7264 47.3376L39.5066 44.3009ZM37.4503 42.368L34.5215 44.3206L34.5594 44.3773L34.5994 44.4325L37.4503 42.368ZM36.34 39.6127V36.0927H32.0916L32.8813 40.267L36.34 39.6127ZM60.1511 39.4893L62.6402 41.9783L62.6402 41.9783L60.1511 39.4893ZM60.1511 33.3206L57.3352 35.4326L57.6369 35.8349L58.0392 36.1366L60.1511 33.3206ZM37.1214 30.3185L34.0947 32.1156L34.1073 32.1369L34.1202 32.1579L37.1214 30.3185ZM37.1214 18.1867L40.1225 20.0262L40.1225 20.0262L37.1214 18.1867ZM39.1776 16.1716L40.9451 19.2157L40.9813 19.1947L41.017 19.1728L39.1776 16.1716ZM62.8654 16.1716L61.026 19.1728L61.0616 19.1947L61.0979 19.2157L62.8654 16.1716ZM64.9216 18.1867L61.9204 20.0262L61.9204 20.0262L64.9216 18.1867ZM64.9216 42.1624L61.9204 40.323L61.9204 40.323L64.9216 42.1624ZM62.8654 44.2186L61.026 41.2175L61.026 41.2175L62.8654 44.2186ZM60.3156 27.7277V31.2477H63.8356V27.7277H60.3156ZM60.1511 20.9421L57.3352 23.0541L57.6369 23.4564L58.0391 23.7581L60.1511 20.9421ZM41.8918 20.9421L39.4028 18.4531L39.4028 18.4531L41.8918 20.9421ZM41.8918 27.6043L39.0758 29.7163L39.3775 30.1186L39.7798 30.4203L41.8918 27.6043ZM42.0563 41.48C41.7895 41.48 41.5525 41.42 41.2867 41.2642L37.7264 47.3376C39.0508 48.1139 40.5136 48.52 42.0563 48.52V41.48ZM41.3629 41.3101C40.9753 41.0696 40.6222 40.7466 40.3013 40.3035L34.5994 44.4325C35.43 45.5796 36.4477 46.5452 37.6503 47.2916L41.3629 41.3101ZM40.3792 40.4155C40.1043 40.0032 39.9068 39.5299 39.7986 38.9583L32.8813 40.267C33.157 41.7243 33.6997 43.0879 34.5215 44.3206L40.3792 40.4155ZM36.34 43.1327H59.8221V36.0927H36.34V43.1327ZM59.8221 43.1327C60.7134 43.1327 61.7809 42.8376 62.6402 41.9783L57.6621 37.0003C58.3569 36.3055 59.2051 36.0927 59.8221 36.0927V43.1327ZM62.6402 41.9783C63.3154 41.303 63.8356 40.3155 63.8356 39.1192H56.7956C56.7956 38.703 56.8822 38.2803 57.0579 37.8849C57.23 37.4977 57.4564 37.2061 57.6621 37.0003L62.6402 41.9783ZM63.8356 39.1192V33.6496H56.7956V39.1192H63.8356ZM63.8356 33.6496C63.8356 32.4046 63.2592 31.2516 62.2631 30.5046L58.0392 36.1366C57.709 35.889 57.3707 35.5278 57.1261 35.0387C56.8816 34.5496 56.7956 34.0623 56.7956 33.6496H63.8356ZM62.9671 31.2086C62.2201 30.2126 61.0672 29.6361 59.8221 29.6361V36.6761C59.4094 36.6761 58.9221 36.5902 58.433 36.3456C57.9439 36.1011 57.5828 35.7628 57.3352 35.4326L62.9671 31.2086ZM59.8221 29.6361H42.0563V36.6761H59.8221V29.6361ZM42.0563 29.6361C41.5873 29.6361 41.273 29.5305 41.017 29.3736L37.3382 35.3759C38.782 36.2608 40.3869 36.6761 42.0563 36.6761V29.6361ZM41.017 29.3736C40.6406 29.1429 40.3532 28.8555 40.1225 28.4791L34.1202 32.1579C34.9313 33.4813 36.0148 34.5648 37.3382 35.3759L41.017 29.3736ZM40.148 28.5214C39.9571 28.1998 39.86 27.8631 39.86 27.4398H32.82C32.82 29.1001 33.2438 30.6825 34.0947 32.1156L40.148 28.5214ZM39.86 27.4398V21.0655H32.82V27.4398H39.86ZM39.86 21.0655C39.86 20.5964 39.9656 20.2821 40.1225 20.0262L34.1202 16.3473C33.2353 17.7912 32.82 19.396 32.82 21.0655H39.86ZM40.1225 20.0262C40.343 19.6664 40.6074 19.4118 40.9451 19.2157L37.4101 13.1276C36.048 13.9185 34.9415 15.0072 34.1202 16.3473L40.1225 20.0262ZM41.017 19.1728C41.273 19.0159 41.5873 18.9103 42.0563 18.9103V11.8703C40.3869 11.8703 38.782 12.2855 37.3382 13.1705L41.017 19.1728ZM42.0563 18.9103H60.0278V11.8703H42.0563V18.9103ZM60.0278 18.9103C60.451 18.9103 60.7552 19.0068 61.026 19.1728L64.7048 13.1705C63.2757 12.2946 61.6882 11.8703 60.0278 11.8703V18.9103ZM61.0979 19.2157C61.4356 19.4118 61.7 19.6664 61.9204 20.0262L67.9228 16.3473C67.1014 15.0072 65.995 13.9185 64.6329 13.1276L61.0979 19.2157ZM61.9204 20.0262C62.0773 20.2821 62.183 20.5964 62.183 21.0655H69.223C69.223 19.396 68.8077 17.7912 67.9228 16.3473L61.9204 20.0262ZM62.183 21.0655V39.3248H69.223V21.0655H62.183ZM62.183 39.3248C62.183 39.7481 62.0864 40.0522 61.9204 40.323L67.9228 44.0018C68.7986 42.5728 69.223 40.9852 69.223 39.3248H62.183ZM61.9204 40.323C61.6897 40.6994 61.4024 40.9867 61.026 41.2175L64.7048 47.2198C66.0282 46.4087 67.1117 45.3252 67.9228 44.0018L61.9204 40.323ZM61.026 41.2175C60.7552 41.3834 60.451 41.48 60.0278 41.48V48.52C61.6882 48.52 63.2757 48.0957 64.7048 47.2198L61.026 41.2175ZM60.0278 41.48H42.0563V48.52H60.0278V41.48ZM42.2619 31.2477H60.3156V24.2077H42.2619V31.2477ZM63.8356 27.7277V21.2711H56.7956V27.7277H63.8356ZM63.8356 21.2711C63.8356 20.0261 63.2592 18.8731 62.2632 18.1261L58.0391 23.7581C57.709 23.5105 57.3707 23.1493 57.1261 22.6602C56.8816 22.1711 56.7956 21.6838 56.7956 21.2711H63.8356ZM62.9671 18.8301C62.2201 17.8341 61.0672 17.2576 59.8221 17.2576V24.2976C59.4094 24.2976 58.9221 24.2116 58.433 23.9671C57.9439 23.7226 57.5828 23.3843 57.3352 23.0541L62.9671 18.8301ZM59.8221 17.2576H42.2619V24.2976H59.8221V17.2576ZM42.2619 17.2576C41.0656 17.2576 40.0781 17.7778 39.4028 18.4531L44.3808 23.4311C44.175 23.6369 43.8834 23.8632 43.4962 24.0353C43.1008 24.2111 42.6781 24.2976 42.2619 24.2976V17.2576ZM39.4028 18.4531C38.5436 19.3123 38.2484 20.3798 38.2484 21.2711H45.2884C45.2884 21.8882 45.0756 22.7364 44.3808 23.4311L39.4028 18.4531ZM38.2484 21.2711V27.2342H45.2884V21.2711H38.2484ZM38.2484 27.2342C38.2484 28.1329 38.5366 28.9973 39.0758 29.7163L44.7078 25.4923C45.0825 25.9919 45.2884 26.6096 45.2884 27.2342H38.2484ZM39.7798 30.4203C40.4988 30.9595 41.3632 31.2477 42.2619 31.2477V24.2077C42.8865 24.2077 43.5042 24.4136 44.0038 24.7883L39.7798 30.4203ZM80.4307 45L77.1229 46.2037L77.9658 48.52H80.4307V45ZM69.6561 15.3903V11.8703H64.6294L66.3483 16.5939L69.6561 15.3903ZM75.4135 15.3903L78.7187 14.1795L77.8728 11.8703H75.4135V15.3903ZM82.5692 34.9245L79.264 36.1352L82.5692 45.1581L85.8744 36.1352L82.5692 34.9245ZM89.7249 15.3903V11.8703H87.2656L86.4197 14.1795L89.7249 15.3903ZM95.03 15.3903L98.3352 14.1795L97.4893 11.8703H95.03V15.3903ZM102.186 34.9245L98.8804 36.1352L102.195 45.1841L105.493 36.1291L102.186 34.9245ZM109.3 15.3903V11.8703H106.836L105.993 14.1856L109.3 15.3903ZM115.099 15.3903L118.407 16.5939L120.125 11.8703H115.099V15.3903ZM104.324 45V48.52H106.789L107.632 46.2037L104.324 45ZM100.047 45L96.7423 46.2118L97.5887 48.52H100.047V45ZM92.3569 24.0264L95.6617 22.8147L92.348 13.7773L89.0499 22.8204L92.3569 24.0264ZM84.7077 45V48.52H87.1707L88.0146 46.2061L84.7077 45ZM83.7385 43.7963L72.9639 14.1866L66.3483 16.5939L77.1229 46.2037L83.7385 43.7963ZM69.6561 18.9103H75.4135V11.8703H69.6561V18.9103ZM72.1083 16.601L79.264 36.1352L85.8744 33.7137L78.7187 14.1795L72.1083 16.601ZM85.8744 36.1352L93.0301 16.601L86.4197 14.1795L79.264 33.7137L85.8744 36.1352ZM89.7249 18.9103H95.03V11.8703H89.7249V18.9103ZM91.7248 16.601L98.8804 36.1352L105.491 33.7137L98.3352 14.1795L91.7248 16.601ZM105.493 36.1291L112.608 16.5949L105.993 14.1856L98.8782 33.7199L105.493 36.1291ZM109.3 18.9103H115.099V11.8703H109.3V18.9103ZM111.791 14.1866L101.016 43.7963L107.632 46.2037L118.407 16.5939L111.791 14.1866ZM104.324 41.48H100.047V48.52H104.324V41.48ZM103.352 43.7882L95.6617 22.8147L89.052 25.2382L96.7423 46.2118L103.352 43.7882ZM89.0499 22.8204L81.4008 43.7939L88.0146 46.2061L95.6638 25.2325L89.0499 22.8204ZM84.7077 41.48H80.4307V48.52H84.7077V41.48ZM118.418 45H114.898V48.52H118.418V45ZM118.418 15.3903V11.8703H114.898V15.3903H118.418ZM123.805 15.3903H127.325V11.8703H123.805V15.3903ZM123.805 45V48.52H127.325V45H123.805ZM121.938 45V15.3903H114.898V45H121.938ZM118.418 18.9103H123.805V11.8703H118.418V18.9103ZM120.285 15.3903V45H127.325V15.3903H120.285ZM123.805 41.48H118.418V48.52H123.805V41.48ZM127.789 45H124.269V48.52H127.789V45ZM127.789 15.3903V11.8703H124.269V15.3903H127.789ZM133.752 15.3903L136.447 13.1257L135.392 11.8703H133.752V15.3903ZM151.929 37.0218L149.234 39.2863L155.449 46.6823V37.0218H151.929ZM151.929 15.3903V11.8703H148.409V15.3903H151.929ZM157.399 15.3903H160.919V11.8703H157.399V15.3903ZM157.399 45V48.52H160.919V45H157.399ZM151.436 45L148.741 47.265L149.796 48.52H151.436V45ZM133.217 23.3273L135.912 21.0623L129.697 13.6695V23.3273H133.217ZM133.217 45V48.52H136.737V45H133.217ZM131.309 45V15.3903H124.269V45H131.309ZM127.789 18.9103H133.752V11.8703H127.789V18.9103ZM131.057 17.6548L149.234 39.2863L154.624 34.7573L136.447 13.1257L131.057 17.6548ZM155.449 37.0218V15.3903H148.409V37.0218H155.449ZM151.929 18.9103H157.399V11.8703H151.929V18.9103ZM153.879 15.3903V45H160.919V15.3903H153.879ZM157.399 41.48H151.436V48.52H157.399V41.48ZM154.13 42.735L135.912 21.0623L130.523 25.5923L148.741 47.265L154.13 42.735ZM129.697 23.3273V45H136.737V23.3273H129.697ZM133.217 41.48H127.789V48.52H133.217V41.48ZM164.844 44.2186L163.004 47.2198L163.025 47.2327L163.046 47.2453L164.844 44.2186ZM162.787 42.1624L159.761 43.9595L159.773 43.9807L159.786 44.0018L162.787 42.1624ZM162.787 18.269L165.788 20.1084L165.801 20.0873L165.814 20.0661L162.787 18.269ZM164.844 16.1716L163.046 13.1449L163.025 13.1576L163.004 13.1705L164.844 16.1716ZM190.834 18.269L187.808 20.0661L187.82 20.0873L187.833 20.1084L190.834 18.269ZM191.616 23.4096V26.9296H195.136V23.4096H191.616ZM186.146 23.4096H182.626V26.9296H186.146V23.4096ZM185.982 21.0243L183.493 23.5134L183.669 23.6902L183.87 23.8403L185.982 21.0243ZM167.558 21.0243L170.047 23.5134L170.047 23.5133L167.558 21.0243ZM167.558 39.407L164.742 41.5191L165.043 41.9213L165.446 42.223L167.558 39.407ZM185.982 39.407L188.094 42.223L188.294 42.0729L188.471 41.8961L185.982 39.407ZM186.146 33.6907H189.666V30.1707H186.146V33.6907ZM179.443 33.6907H175.923V37.2107H179.443V33.6907ZM179.443 28.2211V24.7011H175.923V28.2211H179.443ZM191.616 28.2211H195.136V24.7011H191.616V28.2211ZM190.834 42.1624L193.835 44.0018L193.848 43.9807L193.861 43.9595L190.834 42.1624ZM188.737 44.2186L186.94 41.1919L188.737 44.2186ZM167.722 41.48C167.299 41.48 166.962 41.3829 166.641 41.1919L163.046 47.2453C164.48 48.0962 166.062 48.52 167.722 48.52V41.48ZM166.683 41.2175C166.307 40.9868 166.019 40.6994 165.788 40.323L159.786 44.0018C160.597 45.3252 161.681 46.4087 163.004 47.2198L166.683 41.2175ZM165.814 40.3653C165.623 40.0437 165.526 39.707 165.526 39.2837H158.486C158.486 40.944 158.91 42.5264 159.761 43.9595L165.814 40.3653ZM165.526 39.2837V21.1066H158.486V39.2837H165.526ZM165.526 21.1066C165.526 20.6833 165.623 20.3792 165.788 20.1084L159.786 16.4296C158.91 17.8586 158.486 19.4462 158.486 21.1066H165.526ZM165.814 20.0661C166.05 19.6686 166.333 19.3875 166.683 19.1728L163.004 13.1705C161.655 13.9975 160.566 15.1147 159.761 16.4719L165.814 20.0661ZM166.641 19.1983C166.962 19.0074 167.299 18.9103 167.722 18.9103V11.8703C166.062 11.8703 164.48 12.2941 163.046 13.1449L166.641 19.1983ZM167.722 18.9103H185.858V11.8703H167.722V18.9103ZM185.858 18.9103C186.282 18.9103 186.618 19.0074 186.94 19.1983L190.534 13.1449C189.101 12.2941 187.519 11.8703 185.858 11.8703V18.9103ZM186.94 19.1983C187.311 19.4186 187.587 19.695 187.808 20.0661L193.861 16.4719C193.04 15.0883 191.918 13.9664 190.534 13.1449L186.94 19.1983ZM187.833 20.1084C187.999 20.3792 188.096 20.6833 188.096 21.1066H195.136C195.136 19.4462 194.711 17.8586 193.835 16.4296L187.833 20.1084ZM188.096 21.1066V23.4096H195.136V21.1066H188.096ZM191.616 19.8896H186.146V26.9296H191.616V19.8896ZM189.666 23.4096V21.3533H182.626V23.4096H189.666ZM189.666 21.3533C189.666 20.1083 189.09 18.9554 188.094 18.2083L183.87 23.8403C183.539 23.5927 183.201 23.2316 182.957 22.7425C182.712 22.2534 182.626 21.766 182.626 21.3533H189.666ZM188.471 18.5353C187.795 17.86 186.808 17.3398 185.611 17.3398V24.3798C185.195 24.3798 184.773 24.2933 184.377 24.1176C183.99 23.9455 183.698 23.7191 183.493 23.5134L188.471 18.5353ZM185.611 17.3398H167.928V24.3798H185.611V17.3398ZM167.928 17.3398C166.732 17.3398 165.744 17.86 165.069 18.5353L170.047 23.5133C169.841 23.7191 169.549 23.9455 169.162 24.1176C168.767 24.2933 168.344 24.3798 167.928 24.3798V17.3398ZM165.069 18.5353C164.21 19.3945 163.914 20.4621 163.914 21.3533H170.954C170.954 21.9704 170.742 22.8186 170.047 23.5134L165.069 18.5353ZM163.914 21.3533V39.0369H170.954V21.3533H163.914ZM163.914 39.0369C163.914 39.9356 164.203 40.8001 164.742 41.5191L170.374 37.295C170.749 37.7947 170.954 38.4124 170.954 39.0369H163.914ZM165.446 42.223C166.165 42.7623 167.029 43.0504 167.928 43.0504V36.0104C168.552 36.0104 169.17 36.2163 169.67 36.5911L165.446 42.223ZM167.928 43.0504H185.611V36.0104H167.928V43.0504ZM185.611 43.0504C186.51 43.0504 187.375 42.7623 188.094 42.223L183.87 36.591C184.369 36.2163 184.987 36.0104 185.611 36.0104V43.0504ZM188.471 41.8961C189.146 41.2208 189.666 40.2332 189.666 39.0369H182.626C182.626 38.6207 182.713 38.1981 182.888 37.8027C183.06 37.4155 183.287 37.1238 183.493 36.918L188.471 41.8961ZM189.666 39.0369V33.6907H182.626V39.0369H189.666ZM186.146 30.1707H179.443V37.2107H186.146V30.1707ZM182.963 33.6907V28.2211H175.923V33.6907H182.963ZM179.443 31.7411H191.616V24.7011H179.443V31.7411ZM188.096 28.2211V39.2837H195.136V28.2211H188.096ZM188.096 39.2837C188.096 39.707 187.999 40.0437 187.808 40.3653L193.861 43.9595C194.712 42.5264 195.136 40.944 195.136 39.2837H188.096ZM187.833 40.323C187.618 40.6734 187.337 40.9559 186.94 41.1919L190.534 47.2453C191.891 46.4395 193.008 45.3512 193.835 44.0018L187.833 40.323ZM186.94 41.1919C186.618 41.3829 186.282 41.48 185.858 41.48V48.52C187.519 48.52 189.101 48.0962 190.534 47.2453L186.94 41.1919ZM185.858 41.48H167.722V48.52H185.858V41.48ZM198.898 44.2186L197.059 47.2198L197.08 47.2327L197.101 47.2453L198.898 44.2186ZM196.842 42.1624L193.815 43.9595L193.828 43.9807L193.841 44.0018L196.842 42.1624ZM196.842 18.269L199.843 20.1084L199.856 20.0873L199.868 20.0661L196.842 18.269ZM198.898 16.1716L197.101 13.1449L197.08 13.1576L197.059 13.1705L198.898 16.1716ZM222.791 16.1716L220.952 19.1728L220.973 19.1857L220.994 19.1983L222.791 16.1716ZM224.889 18.269L221.862 20.0661L221.875 20.0873L221.888 20.1084L224.889 18.269ZM224.889 42.1624L227.89 44.0018L227.903 43.9807L227.915 43.9595L224.889 42.1624ZM222.791 44.2186L220.994 41.1919L220.973 41.2046L220.952 41.2175L222.791 44.2186ZM220.036 39.407L222.148 42.223L222.348 42.073L222.525 41.8961L220.036 39.407ZM220.036 21.0243L217.547 23.5134L217.724 23.6903L217.924 23.8404L220.036 21.0243ZM201.612 21.0243L204.101 23.5134L204.101 23.5133L201.612 21.0243ZM201.612 39.407L198.796 41.5191L199.098 41.9213L199.5 42.223L201.612 39.407ZM201.777 41.48C201.353 41.48 201.017 41.3829 200.695 41.1919L197.101 47.2453C198.534 48.0962 200.116 48.52 201.777 48.52V41.48ZM200.737 41.2175C200.361 40.9868 200.074 40.6994 199.843 40.323L193.841 44.0018C194.652 45.3252 195.735 46.4087 197.059 47.2198L200.737 41.2175ZM199.868 40.3653C199.677 40.0437 199.58 39.707 199.58 39.2837H192.54C192.54 40.944 192.964 42.5264 193.815 43.9595L199.868 40.3653ZM199.58 39.2837V21.1066H192.54V39.2837H199.58ZM199.58 21.1066C199.58 20.6833 199.677 20.3792 199.843 20.1084L193.841 16.4296C192.965 17.8586 192.54 19.4462 192.54 21.1066H199.58ZM199.868 20.0661C200.104 19.6686 200.387 19.3875 200.737 19.1728L197.059 13.1705C195.709 13.9975 194.621 15.1147 193.815 16.4719L199.868 20.0661ZM200.695 19.1983C201.017 19.0074 201.353 18.9103 201.777 18.9103V11.8703C200.116 11.8703 198.534 12.2941 197.101 13.1449L200.695 19.1983ZM201.777 18.9103H219.954V11.8703H201.777V18.9103ZM219.954 18.9103C220.377 18.9103 220.681 19.0068 220.952 19.1728L224.631 13.1705C223.202 12.2946 221.614 11.8703 219.954 11.8703V18.9103ZM220.994 19.1983C221.365 19.4186 221.642 19.695 221.862 20.0661L227.915 16.4719C227.094 15.0883 225.972 13.9664 224.588 13.1449L220.994 19.1983ZM221.888 20.1084C222.054 20.3792 222.15 20.6833 222.15 21.1066H229.19C229.19 19.4462 228.766 17.8586 227.89 16.4296L221.888 20.1084ZM222.15 21.1066V39.2837H229.19V21.1066H222.15ZM222.15 39.2837C222.15 39.707 222.053 40.0437 221.862 40.3653L227.915 43.9595C228.766 42.5264 229.19 40.944 229.19 39.2837H222.15ZM221.888 40.323C221.673 40.6734 221.392 40.9559 220.994 41.1919L224.588 47.2453C225.946 46.4395 227.063 45.3512 227.89 44.0018L221.888 40.323ZM220.952 41.2175C220.681 41.3834 220.377 41.48 219.954 41.48V48.52C221.614 48.52 223.202 48.0957 224.631 47.2198L220.952 41.2175ZM219.954 41.48H201.777V48.52H219.954V41.48ZM201.982 43.0504H219.666V36.0104H201.982V43.0504ZM219.666 43.0504C220.565 43.0504 221.429 42.7623 222.148 42.223L217.924 36.591C218.424 36.2163 219.041 36.0104 219.666 36.0104V43.0504ZM222.525 41.8961C223.2 41.2208 223.721 40.2332 223.721 39.0369H216.681C216.681 38.6207 216.767 38.1981 216.943 37.8027C217.115 37.4154 217.341 37.1238 217.547 36.918L222.525 41.8961ZM223.721 39.0369V21.3533H216.681V39.0369H223.721ZM223.721 21.3533C223.721 20.1083 223.144 18.9553 222.148 18.2083L217.924 23.8404C217.594 23.5927 217.256 23.2316 217.011 22.7425C216.766 22.2534 216.681 21.7661 216.681 21.3533H223.721ZM222.525 18.5353C221.85 17.86 220.862 17.3398 219.666 17.3398V24.3798C219.25 24.3798 218.827 24.2933 218.432 24.1176C218.044 23.9455 217.753 23.7191 217.547 23.5134L222.525 18.5353ZM219.666 17.3398H201.982V24.3798H219.666V17.3398ZM201.982 17.3398C200.786 17.3398 199.798 17.86 199.123 18.5353L204.101 23.5133C203.895 23.7191 203.604 23.9455 203.217 24.1176C202.821 24.2933 202.398 24.3798 201.982 24.3798V17.3398ZM199.123 18.5353C198.264 19.3945 197.969 20.4621 197.969 21.3533H205.009C205.009 21.9704 204.796 22.8186 204.101 23.5134L199.123 18.5353ZM197.969 21.3533V39.0369H205.009V21.3533H197.969ZM197.969 39.0369C197.969 39.9356 198.257 40.8001 198.796 41.5191L204.428 37.295C204.803 37.7947 205.009 38.4124 205.009 39.0369H197.969ZM199.5 42.223C200.219 42.7623 201.084 43.0504 201.982 43.0504V36.0104C202.607 36.0104 203.225 36.2163 203.724 36.5911L199.5 42.223Z" fill="#100427" mask="url(#path-1-outside-1_66_2160)"/>
<mask id="path-3-outside-2_66_2160" maskUnits="userSpaceOnUse" x="-2" y="6" width="232" height="38" fill="black">
<rect fill="white" x="-2" y="6" width="232" height="38"/>
<path d="M7.99997 40C7.09523 40 6.24532 39.767 5.45024 39.3009C4.65517 38.8074 3.96976 38.1631 3.39401 37.368C2.84568 36.5455 2.47556 35.6271 2.28365 34.6127H25.7658C25.9029 34.6127 26.0126 34.5715 26.0948 34.4893C26.2045 34.3796 26.2593 34.2563 26.2593 34.1192V28.6496C26.2593 28.5125 26.2045 28.4029 26.0948 28.3206C26.0126 28.2109 25.9029 28.1561 25.7658 28.1561H7.99997C6.93073 28.1561 5.97116 27.8956 5.12125 27.3747C4.27134 26.8538 3.58593 26.1684 3.06502 25.3185C2.5441 24.4412 2.28365 23.4816 2.28365 22.4398V16.0655C2.28365 14.9962 2.5441 14.0366 3.06502 13.1867C3.58593 12.3368 4.27134 11.6651 5.12125 11.1716C5.97116 10.6507 6.93073 10.3903 7.99997 10.3903H25.9714C27.0133 10.3903 27.9591 10.6507 28.809 11.1716C29.6589 11.6651 30.3444 12.3368 30.8653 13.1867C31.3862 14.0366 31.6466 14.9962 31.6466 16.0655V34.3248C31.6466 35.3666 31.3862 36.3125 30.8653 37.1624C30.3444 38.0123 29.6589 38.6977 28.809 39.2186C27.9591 39.7395 27.0133 40 25.9714 40H7.99997ZM8.2056 22.7277H26.2593V16.2711C26.2593 16.134 26.2045 16.0243 26.0948 15.9421C26.0126 15.8324 25.9029 15.7776 25.7658 15.7776H8.2056C8.06851 15.7776 7.94514 15.8324 7.83547 15.9421C7.75322 16.0243 7.7121 16.134 7.7121 16.2711V22.2342C7.7121 22.3712 7.75322 22.4946 7.83547 22.6043C7.94514 22.6865 8.06851 22.7277 8.2056 22.7277ZM42.0563 40C41.1516 40 40.3017 39.767 39.5066 39.3009C38.7115 38.8074 38.0261 38.1631 37.4503 37.368C36.902 36.5455 36.5319 35.6271 36.34 34.6127H59.8221C59.9592 34.6127 60.0689 34.5715 60.1511 34.4893C60.2608 34.3796 60.3156 34.2563 60.3156 34.1192V28.6496C60.3156 28.5125 60.2608 28.4029 60.1511 28.3206C60.0689 28.2109 59.9592 28.1561 59.8221 28.1561H42.0563C40.9871 28.1561 40.0275 27.8956 39.1776 27.3747C38.3277 26.8538 37.6423 26.1684 37.1214 25.3185C36.6004 24.4412 36.34 23.4816 36.34 22.4398V16.0655C36.34 14.9962 36.6004 14.0366 37.1214 13.1867C37.6423 12.3368 38.3277 11.6651 39.1776 11.1716C40.0275 10.6507 40.9871 10.3903 42.0563 10.3903H60.0278C61.0696 10.3903 62.0155 10.6507 62.8654 11.1716C63.7153 11.6651 64.4007 12.3368 64.9216 13.1867C65.4425 14.0366 65.703 14.9962 65.703 16.0655V34.3248C65.703 35.3666 65.4425 36.3125 64.9216 37.1624C64.4007 38.0123 63.7153 38.6977 62.8654 39.2186C62.0155 39.7395 61.0696 40 60.0278 40H42.0563ZM42.2619 22.7277H60.3156V16.2711C60.3156 16.134 60.2608 16.0243 60.1511 15.9421C60.0689 15.8324 59.9592 15.7776 59.8221 15.7776H42.2619C42.1248 15.7776 42.0015 15.8324 41.8918 15.9421C41.8096 16.0243 41.7684 16.134 41.7684 16.2711V22.2342C41.7684 22.3712 41.8096 22.4946 41.8918 22.6043C42.0015 22.6865 42.1248 22.7277 42.2619 22.7277ZM80.4307 40L69.6561 10.3903H75.4135L82.5692 29.9245L89.7249 10.3903H95.03L102.186 29.9245L109.3 10.3903H115.099L104.324 40H100.047L92.3569 19.0264L84.7077 40H80.4307ZM118.418 40V10.3903H123.805V40H118.418ZM127.789 40V10.3903H133.752L151.929 32.0218V10.3903H157.399V40H151.436L133.217 18.3273V40H127.789ZM167.722 40C166.68 40 165.721 39.7395 164.844 39.2186C163.994 38.6977 163.308 38.0123 162.787 37.1624C162.266 36.2851 162.006 35.3255 162.006 34.2837V16.1066C162.006 15.0648 162.266 14.1189 162.787 13.269C163.308 12.3917 163.994 11.6925 164.844 11.1716C165.721 10.6507 166.68 10.3903 167.722 10.3903H185.858C186.9 10.3903 187.86 10.6507 188.737 11.1716C189.614 11.6925 190.313 12.3917 190.834 13.269C191.355 14.1189 191.616 15.0648 191.616 16.1066V18.4096H186.146V16.3533C186.146 16.2163 186.091 16.1066 185.982 16.0243C185.872 15.9147 185.749 15.8598 185.611 15.8598H167.928C167.791 15.8598 167.667 15.9147 167.558 16.0243C167.476 16.1066 167.434 16.2163 167.434 16.3533V34.0369C167.434 34.174 167.476 34.2974 167.558 34.407C167.667 34.4893 167.791 34.5304 167.928 34.5304H185.611C185.749 34.5304 185.872 34.4893 185.982 34.407C186.091 34.2974 186.146 34.174 186.146 34.0369V28.6907H179.443V23.2211H191.616V34.2837C191.616 35.3255 191.355 36.2851 190.834 37.1624C190.313 38.0123 189.614 38.6977 188.737 39.2186C187.86 39.7395 186.9 40 185.858 40H167.722ZM201.777 40C200.735 40 199.775 39.7395 198.898 39.2186C198.048 38.6977 197.363 38.0123 196.842 37.1624C196.321 36.2851 196.06 35.3255 196.06 34.2837V16.1066C196.06 15.0648 196.321 14.1189 196.842 13.269C197.363 12.3917 198.048 11.6925 198.898 11.1716C199.775 10.6507 200.735 10.3903 201.777 10.3903H219.954C220.996 10.3903 221.941 10.6507 222.791 11.1716C223.669 11.6925 224.368 12.3917 224.889 13.269C225.41 14.1189 225.67 15.0648 225.67 16.1066V34.2837C225.67 35.3255 225.41 36.2851 224.889 37.1624C224.368 38.0123 223.669 38.6977 222.791 39.2186C221.941 39.7395 220.996 40 219.954 40H201.777ZM201.982 34.5304H219.666C219.803 34.5304 219.926 34.4893 220.036 34.407C220.146 34.2974 220.201 34.174 220.201 34.0369V16.3533C220.201 16.2163 220.146 16.1066 220.036 16.0243C219.926 15.9147 219.803 15.8598 219.666 15.8598H201.982C201.845 15.8598 201.722 15.9147 201.612 16.0243C201.53 16.1066 201.489 16.2163 201.489 16.3533V34.0369C201.489 34.174 201.53 34.2974 201.612 34.407C201.722 34.4893 201.845 34.5304 201.982 34.5304Z"/>
</mask>
<path d="M7.99997 40C7.09523 40 6.24532 39.767 5.45024 39.3009C4.65517 38.8074 3.96976 38.1631 3.39401 37.368C2.84568 36.5455 2.47556 35.6271 2.28365 34.6127H25.7658C25.9029 34.6127 26.0126 34.5715 26.0948 34.4893C26.2045 34.3796 26.2593 34.2563 26.2593 34.1192V28.6496C26.2593 28.5125 26.2045 28.4029 26.0948 28.3206C26.0126 28.2109 25.9029 28.1561 25.7658 28.1561H7.99997C6.93073 28.1561 5.97116 27.8956 5.12125 27.3747C4.27134 26.8538 3.58593 26.1684 3.06502 25.3185C2.5441 24.4412 2.28365 23.4816 2.28365 22.4398V16.0655C2.28365 14.9962 2.5441 14.0366 3.06502 13.1867C3.58593 12.3368 4.27134 11.6651 5.12125 11.1716C5.97116 10.6507 6.93073 10.3903 7.99997 10.3903H25.9714C27.0133 10.3903 27.9591 10.6507 28.809 11.1716C29.6589 11.6651 30.3444 12.3368 30.8653 13.1867C31.3862 14.0366 31.6466 14.9962 31.6466 16.0655V34.3248C31.6466 35.3666 31.3862 36.3125 30.8653 37.1624C30.3444 38.0123 29.6589 38.6977 28.809 39.2186C27.9591 39.7395 27.0133 40 25.9714 40H7.99997ZM8.2056 22.7277H26.2593V16.2711C26.2593 16.134 26.2045 16.0243 26.0948 15.9421C26.0126 15.8324 25.9029 15.7776 25.7658 15.7776H8.2056C8.06851 15.7776 7.94514 15.8324 7.83547 15.9421C7.75322 16.0243 7.7121 16.134 7.7121 16.2711V22.2342C7.7121 22.3712 7.75322 22.4946 7.83547 22.6043C7.94514 22.6865 8.06851 22.7277 8.2056 22.7277ZM42.0563 40C41.1516 40 40.3017 39.767 39.5066 39.3009C38.7115 38.8074 38.0261 38.1631 37.4503 37.368C36.902 36.5455 36.5319 35.6271 36.34 34.6127H59.8221C59.9592 34.6127 60.0689 34.5715 60.1511 34.4893C60.2608 34.3796 60.3156 34.2563 60.3156 34.1192V28.6496C60.3156 28.5125 60.2608 28.4029 60.1511 28.3206C60.0689 28.2109 59.9592 28.1561 59.8221 28.1561H42.0563C40.9871 28.1561 40.0275 27.8956 39.1776 27.3747C38.3277 26.8538 37.6423 26.1684 37.1214 25.3185C36.6004 24.4412 36.34 23.4816 36.34 22.4398V16.0655C36.34 14.9962 36.6004 14.0366 37.1214 13.1867C37.6423 12.3368 38.3277 11.6651 39.1776 11.1716C40.0275 10.6507 40.9871 10.3903 42.0563 10.3903H60.0278C61.0696 10.3903 62.0155 10.6507 62.8654 11.1716C63.7153 11.6651 64.4007 12.3368 64.9216 13.1867C65.4425 14.0366 65.703 14.9962 65.703 16.0655V34.3248C65.703 35.3666 65.4425 36.3125 64.9216 37.1624C64.4007 38.0123 63.7153 38.6977 62.8654 39.2186C62.0155 39.7395 61.0696 40 60.0278 40H42.0563ZM42.2619 22.7277H60.3156V16.2711C60.3156 16.134 60.2608 16.0243 60.1511 15.9421C60.0689 15.8324 59.9592 15.7776 59.8221 15.7776H42.2619C42.1248 15.7776 42.0015 15.8324 41.8918 15.9421C41.8096 16.0243 41.7684 16.134 41.7684 16.2711V22.2342C41.7684 22.3712 41.8096 22.4946 41.8918 22.6043C42.0015 22.6865 42.1248 22.7277 42.2619 22.7277ZM80.4307 40L69.6561 10.3903H75.4135L82.5692 29.9245L89.7249 10.3903H95.03L102.186 29.9245L109.3 10.3903H115.099L104.324 40H100.047L92.3569 19.0264L84.7077 40H80.4307ZM118.418 40V10.3903H123.805V40H118.418ZM127.789 40V10.3903H133.752L151.929 32.0218V10.3903H157.399V40H151.436L133.217 18.3273V40H127.789ZM167.722 40C166.68 40 165.721 39.7395 164.844 39.2186C163.994 38.6977 163.308 38.0123 162.787 37.1624C162.266 36.2851 162.006 35.3255 162.006 34.2837V16.1066C162.006 15.0648 162.266 14.1189 162.787 13.269C163.308 12.3917 163.994 11.6925 164.844 11.1716C165.721 10.6507 166.68 10.3903 167.722 10.3903H185.858C186.9 10.3903 187.86 10.6507 188.737 11.1716C189.614 11.6925 190.313 12.3917 190.834 13.269C191.355 14.1189 191.616 15.0648 191.616 16.1066V18.4096H186.146V16.3533C186.146 16.2163 186.091 16.1066 185.982 16.0243C185.872 15.9147 185.749 15.8598 185.611 15.8598H167.928C167.791 15.8598 167.667 15.9147 167.558 16.0243C167.476 16.1066 167.434 16.2163 167.434 16.3533V34.0369C167.434 34.174 167.476 34.2974 167.558 34.407C167.667 34.4893 167.791 34.5304 167.928 34.5304H185.611C185.749 34.5304 185.872 34.4893 185.982 34.407C186.091 34.2974 186.146 34.174 186.146 34.0369V28.6907H179.443V23.2211H191.616V34.2837C191.616 35.3255 191.355 36.2851 190.834 37.1624C190.313 38.0123 189.614 38.6977 188.737 39.2186C187.86 39.7395 186.9 40 185.858 40H167.722ZM201.777 40C200.735 40 199.775 39.7395 198.898 39.2186C198.048 38.6977 197.363 38.0123 196.842 37.1624C196.321 36.2851 196.06 35.3255 196.06 34.2837V16.1066C196.06 15.0648 196.321 14.1189 196.842 13.269C197.363 12.3917 198.048 11.6925 198.898 11.1716C199.775 10.6507 200.735 10.3903 201.777 10.3903H219.954C220.996 10.3903 221.941 10.6507 222.791 11.1716C223.669 11.6925 224.368 12.3917 224.889 13.269C225.41 14.1189 225.67 15.0648 225.67 16.1066V34.2837C225.67 35.3255 225.41 36.2851 224.889 37.1624C224.368 38.0123 223.669 38.6977 222.791 39.2186C221.941 39.7395 220.996 40 219.954 40H201.777ZM201.982 34.5304H219.666C219.803 34.5304 219.926 34.4893 220.036 34.407C220.146 34.2974 220.201 34.174 220.201 34.0369V16.3533C220.201 16.2163 220.146 16.1066 220.036 16.0243C219.926 15.9147 219.803 15.8598 219.666 15.8598H201.982C201.845 15.8598 201.722 15.9147 201.612 16.0243C201.53 16.1066 201.489 16.2163 201.489 16.3533V34.0369C201.489 34.174 201.53 34.2974 201.612 34.407C201.722 34.4893 201.845 34.5304 201.982 34.5304Z" fill="#FFE8BA"/>
<path d="M5.45024 39.3009L3.59288 42.2933L3.6307 42.3168L3.66911 42.3393L5.45024 39.3009ZM3.39401 37.368L0.463542 39.3217L0.501389 39.3784L0.541406 39.4337L3.39401 37.368ZM2.28365 34.6127V31.0907H-1.96714L-1.17695 35.2674L2.28365 34.6127ZM26.0948 34.4893L28.5852 36.9797L28.5852 36.9797L26.0948 34.4893ZM26.0948 28.3206L23.2772 30.4338L23.5791 30.8363L23.9816 31.1382L26.0948 28.3206ZM3.06502 25.3185L0.0366176 27.1166L0.0492421 27.1379L0.0621639 27.159L3.06502 25.3185ZM3.06502 13.1867L6.06787 15.0272L6.06787 15.0272L3.06502 13.1867ZM5.12125 11.1716L6.88976 14.2174L6.92599 14.1964L6.9617 14.1745L5.12125 11.1716ZM28.809 11.1716L26.9686 14.1745L27.0043 14.1964L27.0405 14.2174L28.809 11.1716ZM30.8653 13.1867L27.8624 15.0272L27.8624 15.0272L30.8653 13.1867ZM30.8653 37.1624L27.8624 35.3219L27.8624 35.3219L30.8653 37.1624ZM28.809 39.2186L26.9686 36.2158L26.9686 36.2158L28.809 39.2186ZM26.2593 22.7277V26.2496H29.7813V22.7277H26.2593ZM26.0948 15.9421L23.2772 18.0553L23.5791 18.4578L23.9816 18.7597L26.0948 15.9421ZM7.83547 15.9421L5.34505 13.4517L5.34505 13.4517L7.83547 15.9421ZM7.83547 22.6043L5.01788 24.7175L5.31977 25.12L5.72228 25.4219L7.83547 22.6043ZM7.99997 36.478C7.73352 36.478 7.49687 36.4181 7.23138 36.2625L3.66911 42.3393C4.99378 43.1158 6.45694 43.522 7.99997 43.522V36.478ZM7.30761 36.3085C6.92025 36.068 6.56734 35.7452 6.24662 35.3023L0.541406 39.4337C1.37217 40.581 2.39009 41.5467 3.59288 42.2933L7.30761 36.3085ZM6.32448 35.4144C6.04979 35.0023 5.85233 34.5292 5.74425 33.958L-1.17695 35.2674C-0.9012 36.7249 -0.358423 38.0887 0.463542 39.3217L6.32448 35.4144ZM2.28365 38.1347H25.7658V31.0907H2.28365V38.1347ZM25.7658 38.1347C26.6575 38.1347 27.7255 37.8394 28.5852 36.9797L23.6044 31.9989C24.2996 31.3037 25.1483 31.0907 25.7658 31.0907V38.1347ZM28.5852 36.9797C29.2608 36.3041 29.7813 35.3161 29.7813 34.1192H22.7373C22.7373 33.7027 22.8239 33.2798 22.9998 32.8841C23.172 32.4966 23.3985 32.2048 23.6044 31.9989L28.5852 36.9797ZM29.7813 34.1192V28.6496H22.7373V34.1192H29.7813ZM29.7813 28.6496C29.7813 27.4039 29.2045 26.2504 28.208 25.503L23.9816 31.1382C23.6512 30.8904 23.3127 30.529 23.068 30.0396C22.8233 29.5502 22.7373 29.0626 22.7373 28.6496H29.7813ZM28.9124 26.2074C28.165 25.2109 27.0115 24.6341 25.7658 24.6341V31.6781C25.3528 31.6781 24.8652 31.5921 24.3758 31.3474C23.8864 31.1027 23.525 30.7642 23.2772 30.4338L28.9124 26.2074ZM25.7658 24.6341H7.99997V31.6781H25.7658V24.6341ZM7.99997 24.6341C7.53128 24.6341 7.21735 24.5286 6.9617 24.3719L3.28079 30.3776C4.72496 31.2627 6.33018 31.6781 7.99997 31.6781V24.6341ZM6.9617 24.3719C6.58553 24.1413 6.29843 23.8542 6.06787 23.478L0.0621639 27.159C0.873427 28.4826 1.95715 29.5663 3.28079 30.3776L6.9617 24.3719ZM6.09341 23.5204C5.90267 23.1991 5.80564 22.8628 5.80564 22.4398H-1.23834C-1.23834 24.1004 -0.814459 25.6832 0.0366176 27.1166L6.09341 23.5204ZM5.80564 22.4398V16.0655H-1.23834V22.4398H5.80564ZM5.80564 16.0655C5.80564 15.5968 5.91118 15.2828 6.06787 15.0272L0.0621655 11.3463C-0.822975 12.7905 -1.23834 14.3957 -1.23834 16.0655H5.80564ZM6.06787 15.0272C6.28818 14.6677 6.55234 14.4133 6.88976 14.2174L3.35273 8.12585C1.99033 8.91692 0.883681 10.0059 0.0621639 11.3463L6.06787 15.0272ZM6.9617 14.1745C7.21735 14.0178 7.53128 13.9123 7.99997 13.9123V6.86827C6.33018 6.86827 4.72496 7.28364 3.28079 8.16878L6.9617 14.1745ZM7.99997 13.9123H25.9714V6.86827H7.99997V13.9123ZM25.9714 13.9123C26.3943 13.9123 26.6981 14.0087 26.9686 14.1745L30.6495 8.16878C29.2201 7.29271 27.6322 6.86827 25.9714 6.86827V13.9123ZM27.0405 14.2174C27.3779 14.4133 27.6421 14.6677 27.8624 15.0272L33.8681 11.3463C33.0466 10.0059 31.94 8.91692 30.5776 8.12585L27.0405 14.2174ZM27.8624 15.0272C28.0191 15.2828 28.1246 15.5968 28.1246 16.0655H35.1686C35.1686 14.3957 34.7533 12.7905 33.8681 11.3463L27.8624 15.0272ZM28.1246 16.0655V34.3248H35.1686V16.0655H28.1246ZM28.1246 34.3248C28.1246 34.7477 28.0282 35.0515 27.8624 35.3219L33.8681 39.0029C34.7442 37.5735 35.1686 35.9855 35.1686 34.3248H28.1246ZM27.8624 35.3219C27.6319 35.6981 27.3448 35.9852 26.9686 36.2158L30.6495 42.2215C31.9731 41.4102 33.0569 40.3265 33.8681 39.0029L27.8624 35.3219ZM26.9686 36.2158C26.6981 36.3815 26.3943 36.478 25.9714 36.478V43.522C27.6322 43.522 29.2201 43.0976 30.6495 42.2215L26.9686 36.2158ZM25.9714 36.478H7.99997V43.522H25.9714V36.478ZM8.2056 26.2496H26.2593V19.2057H8.2056V26.2496ZM29.7813 22.7277V16.2711H22.7373V22.7277H29.7813ZM29.7813 16.2711C29.7813 15.0254 29.2045 13.8719 28.208 13.1245L23.9816 18.7597C23.6512 18.5119 23.3127 18.1505 23.068 17.6611C22.8233 17.1717 22.7373 16.6841 22.7373 16.2711H29.7813ZM28.9124 13.8289C28.165 12.8324 27.0115 12.2556 25.7658 12.2556V19.2996C25.3528 19.2996 24.8652 19.2136 24.3758 18.9689C23.8864 18.7242 23.525 18.3857 23.2772 18.0553L28.9124 13.8289ZM25.7658 12.2556H8.2056V19.2996H25.7658V12.2556ZM8.2056 12.2556C7.00869 12.2556 6.02066 12.7761 5.34505 13.4517L10.3259 18.4325C10.12 18.6384 9.82815 18.8649 9.44067 19.0371C9.04498 19.213 8.62206 19.2996 8.2056 19.2996V12.2556ZM5.34505 13.4517C4.48538 14.3113 4.19011 15.3794 4.19011 16.2711H11.2341C11.2341 16.8886 11.0211 17.7373 10.3259 18.4325L5.34505 13.4517ZM4.19011 16.2711V22.2342H11.2341V16.2711H4.19011ZM4.19011 22.2342C4.19011 23.1333 4.4784 23.9982 5.01788 24.7175L10.6531 20.4911C11.028 20.9911 11.2341 21.6092 11.2341 22.2342H4.19011ZM5.72228 25.4219C6.44159 25.9614 7.30646 26.2496 8.2056 26.2496V19.2057C8.83056 19.2057 9.44869 19.4117 9.94866 19.7867L5.72228 25.4219ZM39.5066 39.3009L37.6492 42.2933L37.687 42.3168L37.7254 42.3393L39.5066 39.3009ZM37.4503 37.368L34.5199 39.3217L34.5577 39.3784L34.5977 39.4337L37.4503 37.368ZM36.34 34.6127V31.0907H32.0892L32.8794 35.2674L36.34 34.6127ZM60.1511 34.4893L62.6416 36.9797L62.6416 36.9797L60.1511 34.4893ZM60.1511 28.3206L57.3336 30.4338L57.6354 30.8363L58.038 31.1382L60.1511 28.3206ZM37.1214 25.3185L34.093 27.1166L34.1056 27.1379L34.1185 27.159L37.1214 25.3185ZM37.1214 13.1867L40.1242 15.0272L40.1242 15.0272L37.1214 13.1867ZM39.1776 11.1716L40.9461 14.2174L40.9823 14.1964L41.018 14.1745L39.1776 11.1716ZM62.8654 11.1716L61.0249 14.1745L61.0606 14.1964L61.0969 14.2174L62.8654 11.1716ZM64.9216 13.1867L61.9188 15.0272L61.9188 15.0272L64.9216 13.1867ZM64.9216 37.1624L61.9188 35.3219L61.9188 35.3219L64.9216 37.1624ZM62.8654 39.2186L61.0249 36.2158L61.0249 36.2158L62.8654 39.2186ZM60.3156 22.7277V26.2496H63.8376V22.7277H60.3156ZM60.1511 15.9421L57.3336 18.0553L57.6354 18.4578L58.0379 18.7597L60.1511 15.9421ZM41.8918 15.9421L39.4014 13.4517L39.4014 13.4517L41.8918 15.9421ZM41.8918 22.6043L39.0742 24.7175L39.3761 25.12L39.7786 25.4219L41.8918 22.6043ZM42.0563 36.478C41.7899 36.478 41.5532 36.4181 41.2877 36.2625L37.7254 42.3393C39.0501 43.1158 40.5133 43.522 42.0563 43.522V36.478ZM41.3639 36.3085C40.9766 36.068 40.6237 35.7452 40.303 35.3023L34.5977 39.4337C35.4285 40.581 36.4464 41.5467 37.6492 42.2933L41.3639 36.3085ZM40.3808 35.4144C40.1061 35.0023 39.9087 34.5292 39.8006 33.958L32.8794 35.2674C33.1551 36.7249 33.6979 38.0887 34.5199 39.3217L40.3808 35.4144ZM36.34 38.1347H59.8221V31.0907H36.34V38.1347ZM59.8221 38.1347C60.7138 38.1347 61.7819 37.8394 62.6416 36.9797L57.6607 31.9989C58.3559 31.3037 59.2046 31.0907 59.8221 31.0907V38.1347ZM62.6416 36.9797C63.3172 36.3041 63.8376 35.3161 63.8376 34.1192H56.7937C56.7937 33.7027 56.8802 33.2798 57.0561 32.8841C57.2283 32.4966 57.4548 32.2048 57.6607 31.9989L62.6416 36.9797ZM63.8376 34.1192V28.6496H56.7937V34.1192H63.8376ZM63.8376 28.6496C63.8376 27.4039 63.2609 26.2504 62.2643 25.503L58.038 31.1382C57.7076 30.8904 57.3691 30.529 57.1244 30.0396C56.8797 29.5502 56.7937 29.0626 56.7937 28.6496H63.8376ZM62.9687 26.2074C62.2213 25.2109 61.0678 24.6341 59.8221 24.6341V31.6781C59.4092 31.6781 58.9215 31.5921 58.4321 31.3474C57.9427 31.1027 57.5814 30.7642 57.3336 30.4338L62.9687 26.2074ZM59.8221 24.6341H42.0563V31.6781H59.8221V24.6341ZM42.0563 24.6341C41.5876 24.6341 41.2737 24.5286 41.018 24.3719L37.3371 30.3776C38.7813 31.2627 40.3865 31.6781 42.0563 31.6781V24.6341ZM41.018 24.3719C40.6419 24.1413 40.3548 23.8542 40.1242 23.478L34.1185 27.159C34.9298 28.4826 36.0135 29.5663 37.3371 30.3776L41.018 24.3719ZM40.1497 23.5204C39.959 23.1991 39.862 22.8628 39.862 22.4398H32.818C32.818 24.1004 33.2419 25.6832 34.093 27.1166L40.1497 23.5204ZM39.862 22.4398V16.0655H32.818V22.4398H39.862ZM39.862 16.0655C39.862 15.5968 39.9675 15.2828 40.1242 15.0272L34.1185 11.3463C33.2334 12.7905 32.818 14.3957 32.818 16.0655H39.862ZM40.1242 15.0272C40.3445 14.6677 40.6087 14.4133 40.9461 14.2174L37.4091 8.12585C36.0467 8.91692 34.94 10.0059 34.1185 11.3463L40.1242 15.0272ZM41.018 14.1745C41.2737 14.0178 41.5876 13.9123 42.0563 13.9123V6.86827C40.3865 6.86827 38.7813 7.28364 37.3371 8.16878L41.018 14.1745ZM42.0563 13.9123H60.0278V6.86827H42.0563V13.9123ZM60.0278 13.9123C60.4507 13.9123 60.7545 14.0087 61.0249 14.1745L64.7058 8.16878C63.2764 7.29271 61.6885 6.86827 60.0278 6.86827V13.9123ZM61.0969 14.2174C61.4343 14.4133 61.6984 14.6677 61.9188 15.0272L67.9245 11.3463C67.1029 10.0059 65.9963 8.91692 64.6339 8.12585L61.0969 14.2174ZM61.9188 15.0272C62.0754 15.2828 62.181 15.5968 62.181 16.0655H69.225C69.225 14.3957 68.8096 12.7905 67.9245 11.3463L61.9188 15.0272ZM62.181 16.0655V34.3248H69.225V16.0655H62.181ZM62.181 34.3248C62.181 34.7477 62.0845 35.0515 61.9188 35.3219L67.9245 39.0029C68.8005 37.5735 69.225 35.9855 69.225 34.3248H62.181ZM61.9188 35.3219C61.6882 35.6981 61.4011 35.9852 61.0249 36.2158L64.7058 42.2215C66.0295 41.4102 67.1132 40.3265 67.9245 39.0029L61.9188 35.3219ZM61.0249 36.2158C60.7545 36.3815 60.4507 36.478 60.0278 36.478V43.522C61.6885 43.522 63.2764 43.0976 64.7058 42.2215L61.0249 36.2158ZM60.0278 36.478H42.0563V43.522H60.0278V36.478ZM42.2619 26.2496H60.3156V19.2057H42.2619V26.2496ZM63.8376 22.7277V16.2711H56.7937V22.7277H63.8376ZM63.8376 16.2711C63.8376 15.0254 63.2609 13.8719 62.2643 13.1245L58.0379 18.7597C57.7076 18.5119 57.3691 18.1505 57.1244 17.6611C56.8797 17.1717 56.7937 16.6841 56.7937 16.2711H63.8376ZM62.9687 13.8289C62.2213 12.8324 61.0678 12.2556 59.8221 12.2556V19.2996C59.4092 19.2996 58.9215 19.2136 58.4321 18.9689C57.9427 18.7242 57.5814 18.3857 57.3336 18.0553L62.9687 13.8289ZM59.8221 12.2556H42.2619V19.2996H59.8221V12.2556ZM42.2619 12.2556C41.065 12.2556 40.077 12.7761 39.4014 13.4517L44.3822 18.4325C44.1763 18.6384 43.8845 18.8649 43.497 19.0371C43.1013 19.213 42.6784 19.2996 42.2619 19.2996V12.2556ZM39.4014 13.4517C38.5417 14.3113 38.2464 15.3794 38.2464 16.2711H45.2904C45.2904 16.8886 45.0774 17.7373 44.3822 18.4325L39.4014 13.4517ZM38.2464 16.2711V22.2342H45.2904V16.2711H38.2464ZM38.2464 22.2342C38.2464 23.1333 38.5347 23.9982 39.0742 24.7175L44.7094 20.4911C45.0844 20.9911 45.2904 21.6092 45.2904 22.2342H38.2464ZM39.7786 25.4219C40.4979 25.9614 41.3628 26.2496 42.2619 26.2496V19.2057C42.8869 19.2057 43.505 19.4117 44.005 19.7867L39.7786 25.4219ZM80.4307 40L77.1211 41.2044L77.9644 43.522H80.4307V40ZM69.6561 10.3903V6.86827H64.6265L66.3464 11.5946L69.6561 10.3903ZM75.4135 10.3903L78.7206 9.17882L77.8742 6.86827H75.4135V10.3903ZM82.5692 29.9245L79.2621 31.1359L82.5692 40.1639L85.8763 31.1359L82.5692 29.9245ZM89.7249 10.3903V6.86827H87.2642L86.4178 9.17882L89.7249 10.3903ZM95.03 10.3903L98.3371 9.17882L97.4907 6.86827H95.03V10.3903ZM102.186 29.9245L98.8786 31.1359L102.195 40.1899L105.495 31.1298L102.186 29.9245ZM109.3 10.3903V6.86827H106.835L105.991 9.18497L109.3 10.3903ZM115.099 10.3903L118.408 11.5946L120.128 6.86827H115.099V10.3903ZM104.324 40V43.522H106.79L107.634 41.2044L104.324 40ZM100.047 40L96.7405 41.2125L97.5873 43.522H100.047V40ZM92.3569 19.0264L95.6636 17.814L92.348 8.77148L89.0481 17.8197L92.3569 19.0264ZM84.7077 40V43.522H87.1721L88.0165 41.2067L84.7077 40ZM83.7404 38.7956L72.9657 9.18591L66.3464 11.5946L77.1211 41.2044L83.7404 38.7956ZM69.6561 13.9123H75.4135V6.86827H69.6561V13.9123ZM72.1064 11.6017L79.2621 31.1359L85.8763 28.713L78.7206 9.17882L72.1064 11.6017ZM85.8763 31.1359L93.032 11.6017L86.4178 9.17882L79.2621 28.713L85.8763 31.1359ZM89.7249 13.9123H95.03V6.86827H89.7249V13.9123ZM91.7229 11.6017L98.8786 31.1359L105.493 28.713L98.3371 9.17882L91.7229 11.6017ZM105.495 31.1298L112.61 11.5956L105.991 9.18497L98.8763 28.7192L105.495 31.1298ZM109.3 13.9123H115.099V6.86827H109.3V13.9123ZM111.789 9.18591L101.014 38.7956L107.634 41.2044L118.408 11.5946L111.789 9.18591ZM104.324 36.478H100.047V43.522H104.324V36.478ZM103.354 38.7875L95.6636 17.814L89.0502 20.2389L96.7405 41.2125L103.354 38.7875ZM89.0481 17.8197L81.3989 38.7933L88.0165 41.2067L95.6657 20.2332L89.0481 17.8197ZM84.7077 36.478H80.4307V43.522H84.7077V36.478ZM118.418 40H114.896V43.522H118.418V40ZM118.418 10.3903V6.86827H114.896V10.3903H118.418ZM123.805 10.3903H127.327V6.86827H123.805V10.3903ZM123.805 40V43.522H127.327V40H123.805ZM121.94 40V10.3903H114.896V40H121.94ZM118.418 13.9123H123.805V6.86827H118.418V13.9123ZM120.283 10.3903V40H127.327V10.3903H120.283ZM123.805 36.478H118.418V43.522H123.805V36.478ZM127.789 40H124.267V43.522H127.789V40ZM127.789 10.3903V6.86827H124.267V10.3903H127.789ZM133.752 10.3903L136.448 8.12447L135.393 6.86827H133.752V10.3903ZM151.929 32.0218L149.233 34.2876L155.451 41.6878V32.0218H151.929ZM151.929 10.3903V6.86827H148.407V10.3903H151.929ZM157.399 10.3903H160.921V6.86827H157.399V10.3903ZM157.399 40V43.522H160.921V40H157.399ZM151.436 40L148.74 42.2663L149.795 43.522H151.436V40ZM133.217 18.3273L135.913 16.061L129.695 8.66403V18.3273H133.217ZM133.217 40V43.522H136.739V40H133.217ZM131.311 40V10.3903H124.267V40H131.311ZM127.789 13.9123H133.752V6.86827H127.789V13.9123ZM131.056 12.6561L149.233 34.2876L154.626 29.756L136.448 8.12447L131.056 12.6561ZM155.451 32.0218V10.3903H148.407V32.0218H155.451ZM151.929 13.9123H157.399V6.86827H151.929V13.9123ZM153.877 10.3903V40H160.921V10.3903H153.877ZM157.399 36.478H151.436V43.522H157.399V36.478ZM154.132 37.7337L135.913 16.061L130.521 20.5936L148.74 42.2663L154.132 37.7337ZM129.695 18.3273V40H136.739V18.3273H129.695ZM133.217 36.478H127.789V43.522H133.217V36.478ZM164.844 39.2186L163.003 42.2215L163.024 42.2344L163.045 42.247L164.844 39.2186ZM162.787 37.1624L159.759 38.9605L159.772 38.9818L159.784 39.0029L162.787 37.1624ZM162.787 13.269L165.79 15.1094L165.803 15.0884L165.816 15.0671L162.787 13.269ZM164.844 11.1716L163.045 8.14323L163.024 8.15586L163.003 8.16878L164.844 11.1716ZM190.834 13.269L187.806 15.0671L187.819 15.0884L187.831 15.1094L190.834 13.269ZM191.616 18.4096V21.9316H195.138V18.4096H191.616ZM186.146 18.4096H182.624V21.9316H186.146V18.4096ZM185.982 16.0243L183.491 18.5148L183.668 18.6917L183.868 18.8419L185.982 16.0243ZM167.558 16.0243L170.048 18.5148L170.048 18.5148L167.558 16.0243ZM167.558 34.407L164.74 36.5202L165.042 36.9228L165.445 37.2246L167.558 34.407ZM185.982 34.407L188.095 37.2246L188.295 37.0745L188.472 36.8975L185.982 34.407ZM186.146 28.6907H189.668V25.1687H186.146V28.6907ZM179.443 28.6907H175.921V32.2127H179.443V28.6907ZM179.443 23.2211V19.6992H175.921V23.2211H179.443ZM191.616 23.2211H195.138V19.6992H191.616V23.2211ZM190.834 37.1624L193.837 39.0029L193.85 38.9818L193.863 38.9605L190.834 37.1624ZM188.737 39.2186L186.939 36.1902L188.737 39.2186ZM167.722 36.478C167.299 36.478 166.963 36.381 166.642 36.1902L163.045 42.247C164.479 43.0981 166.062 43.522 167.722 43.522V36.478ZM166.684 36.2158C166.308 35.9852 166.021 35.6981 165.79 35.3219L159.784 39.0029C160.596 40.3265 161.679 41.4102 163.003 42.2215L166.684 36.2158ZM165.816 35.3643C165.625 35.043 165.528 34.7067 165.528 34.2837H158.484C158.484 35.9443 158.908 37.5271 159.759 38.9605L165.816 35.3643ZM165.528 34.2837V16.1066H158.484V34.2837H165.528ZM165.528 16.1066C165.528 15.6837 165.624 15.3799 165.79 15.1094L159.784 11.4285C158.908 12.8579 158.484 14.4458 158.484 16.1066H165.528ZM165.816 15.0671C166.052 14.6699 166.334 14.3891 166.684 14.1745L163.003 8.16878C161.653 8.99602 160.565 10.1135 159.759 11.4709L165.816 15.0671ZM166.642 14.2C166.963 14.0093 167.299 13.9123 167.722 13.9123V6.86827C166.062 6.86827 164.479 7.29216 163.045 8.14323L166.642 14.2ZM167.722 13.9123H185.858V6.86827H167.722V13.9123ZM185.858 13.9123C186.281 13.9123 186.618 14.0093 186.939 14.2L190.535 8.14323C189.102 7.29216 187.519 6.86827 185.858 6.86827V13.9123ZM186.939 14.2C187.31 14.4202 187.586 14.6963 187.806 15.0671L193.863 11.4709C193.041 10.087 191.919 8.9649 190.535 8.14323L186.939 14.2ZM187.831 15.1094C187.997 15.3799 188.094 15.6837 188.094 16.1066H195.138C195.138 14.4458 194.713 12.8579 193.837 11.4285L187.831 15.1094ZM188.094 16.1066V18.4096H195.138V16.1066H188.094ZM191.616 14.8876H186.146V21.9316H191.616V14.8876ZM189.668 18.4096V16.3533H182.624V18.4096H189.668ZM189.668 16.3533C189.668 15.1077 189.091 13.9541 188.095 13.2067L183.868 18.8419C183.538 18.5941 183.2 18.2327 182.955 17.7433C182.71 17.2539 182.624 16.7663 182.624 16.3533H189.668ZM188.472 13.5339C187.796 12.8583 186.808 12.3379 185.611 12.3379V19.3818C185.195 19.3818 184.772 19.2953 184.376 19.1194C183.989 18.9472 183.697 18.7207 183.491 18.5148L188.472 13.5339ZM185.611 12.3379H167.928V19.3818H185.611V12.3379ZM167.928 12.3379C166.731 12.3379 165.743 12.8583 165.067 13.5339L170.048 18.5148C169.842 18.7207 169.55 18.9472 169.163 19.1194C168.767 19.2953 168.344 19.3818 167.928 19.3818V12.3379ZM165.067 13.5339C164.208 14.3936 163.912 15.4616 163.912 16.3533H170.956C170.956 16.9709 170.743 17.8196 170.048 18.5148L165.067 13.5339ZM163.912 16.3533V34.0369H170.956V16.3533H163.912ZM163.912 34.0369C163.912 34.9361 164.201 35.8009 164.74 36.5202L170.375 32.2939C170.75 32.7938 170.956 33.412 170.956 34.0369H163.912ZM165.445 37.2246C166.164 37.7641 167.029 38.0524 167.928 38.0524V31.0084C168.553 31.0084 169.171 31.2145 169.671 31.5895L165.445 37.2246ZM167.928 38.0524H185.611V31.0084H167.928V38.0524ZM185.611 38.0524C186.511 38.0524 187.376 37.7641 188.095 37.2246L183.868 31.5895C184.368 31.2145 184.987 31.0084 185.611 31.0084V38.0524ZM188.472 36.8975C189.148 36.2218 189.668 35.2338 189.668 34.0369H182.624C182.624 33.6205 182.711 33.1976 182.887 32.8019C183.059 32.4144 183.285 32.1226 183.491 31.9166L188.472 36.8975ZM189.668 34.0369V28.6907H182.624V34.0369H189.668ZM186.146 25.1687H179.443V32.2127H186.146V25.1687ZM182.965 28.6907V23.2211H175.921V28.6907H182.965ZM179.443 26.7431H191.616V19.6992H179.443V26.7431ZM188.094 23.2211V34.2837H195.138V23.2211H188.094ZM188.094 34.2837C188.094 34.7067 187.997 35.043 187.806 35.3643L193.863 38.9605C194.714 37.5271 195.138 35.9443 195.138 34.2837H188.094ZM187.831 35.3219C187.617 35.6721 187.336 35.9544 186.939 36.1902L190.535 42.247C191.892 41.4411 193.01 40.3526 193.837 39.0029L187.831 35.3219ZM186.939 36.1902C186.618 36.381 186.281 36.478 185.858 36.478V43.522C187.519 43.522 189.102 43.0981 190.535 42.247L186.939 36.1902ZM185.858 36.478H167.722V43.522H185.858V36.478ZM198.898 39.2186L197.058 42.2215L197.079 42.2344L197.1 42.247L198.898 39.2186ZM196.842 37.1624L193.813 38.9605L193.826 38.9818L193.839 39.0029L196.842 37.1624ZM196.842 13.269L199.845 15.1094L199.858 15.0884L199.87 15.0671L196.842 13.269ZM198.898 11.1716L197.1 8.14323L197.079 8.15586L197.058 8.16878L198.898 11.1716ZM222.791 11.1716L220.951 14.1745L220.972 14.1874L220.993 14.2L222.791 11.1716ZM224.889 13.269L221.86 15.0671L221.873 15.0884L221.886 15.1094L224.889 13.269ZM224.889 37.1624L227.892 39.0029L227.905 38.9818L227.917 38.9605L224.889 37.1624ZM222.791 39.2186L220.993 36.1902L220.972 36.2029L220.951 36.2158L222.791 39.2186ZM220.036 34.407L222.149 37.2246L222.349 37.0745L222.526 36.8975L220.036 34.407ZM220.036 16.0243L217.546 18.5148L217.723 18.6918L217.923 18.8419L220.036 16.0243ZM201.612 16.0243L204.103 18.5148L204.103 18.5148L201.612 16.0243ZM201.612 34.407L198.795 36.5202L199.096 36.9228L199.499 37.2246L201.612 34.407ZM201.777 36.478C201.354 36.478 201.017 36.381 200.696 36.1902L197.1 42.247C198.533 43.0981 200.116 43.522 201.777 43.522V36.478ZM200.738 36.2158C200.362 35.9852 200.075 35.6981 199.845 35.3219L193.839 39.0029C194.65 40.3265 195.734 41.4102 197.058 42.2215L200.738 36.2158ZM199.87 35.3643C199.679 35.043 199.582 34.7067 199.582 34.2837H192.538C192.538 35.9443 192.962 37.5271 193.813 38.9605L199.87 35.3643ZM199.582 34.2837V16.1066H192.538V34.2837H199.582ZM199.582 16.1066C199.582 15.6837 199.679 15.3799 199.845 15.1094L193.839 11.4285C192.963 12.8579 192.538 14.4458 192.538 16.1066H199.582ZM199.87 15.0671C200.106 14.6699 200.388 14.3891 200.738 14.1745L197.058 8.16878C195.708 8.99602 194.619 10.1135 193.813 11.4709L199.87 15.0671ZM200.696 14.2C201.017 14.0093 201.354 13.9123 201.777 13.9123V6.86827C200.116 6.86827 198.533 7.29216 197.1 8.14323L200.696 14.2ZM201.777 13.9123H219.954V6.86827H201.777V13.9123ZM219.954 13.9123C220.377 13.9123 220.68 14.0087 220.951 14.1745L224.632 8.16878C223.202 7.29271 221.615 6.86827 219.954 6.86827V13.9123ZM220.993 14.2C221.364 14.4202 221.64 14.6963 221.86 15.0671L227.917 11.4709C227.095 10.087 225.973 8.9649 224.589 8.14323L220.993 14.2ZM221.886 15.1094C222.052 15.3799 222.148 15.6837 222.148 16.1066H229.192C229.192 14.4458 228.768 12.8579 227.892 11.4285L221.886 15.1094ZM222.148 16.1066V34.2837H229.192V16.1066H222.148ZM222.148 34.2837C222.148 34.7067 222.051 35.043 221.86 35.3643L227.917 38.9605C228.768 37.5271 229.192 35.9443 229.192 34.2837H222.148ZM221.886 35.3219C221.671 35.6721 221.39 35.9544 220.993 36.1902L224.589 42.247C225.947 41.4411 227.064 40.3526 227.892 39.0029L221.886 35.3219ZM220.951 36.2158C220.68 36.3815 220.377 36.478 219.954 36.478V43.522C221.615 43.522 223.202 43.0976 224.632 42.2215L220.951 36.2158ZM219.954 36.478H201.777V43.522H219.954V36.478ZM201.982 38.0524H219.666V31.0084H201.982V38.0524ZM219.666 38.0524C220.565 38.0524 221.43 37.7641 222.149 37.2246L217.923 31.5895C218.423 31.2145 219.041 31.0084 219.666 31.0084V38.0524ZM222.526 36.8975C223.202 36.2219 223.723 35.2338 223.723 34.0369H216.679C216.679 33.6205 216.765 33.1975 216.941 32.8019C217.113 32.4144 217.34 32.1226 217.546 31.9166L222.526 36.8975ZM223.723 34.0369V16.3533H216.679V34.0369H223.723ZM223.723 16.3533C223.723 15.1077 223.146 13.9541 222.149 13.2067L217.923 18.8419C217.592 18.5941 217.254 18.2328 217.009 17.7434C216.765 17.254 216.679 16.7663 216.679 16.3533H223.723ZM222.526 13.5339C221.851 12.8583 220.863 12.3379 219.666 12.3379V19.3818C219.249 19.3818 218.827 19.2953 218.431 19.1194C218.043 18.9472 217.752 18.7207 217.546 18.5148L222.526 13.5339ZM219.666 12.3379H201.982V19.3818H219.666V12.3379ZM201.982 12.3379C200.785 12.3379 199.797 12.8583 199.122 13.5339L204.103 18.5148C203.897 18.7207 203.605 18.9472 203.217 19.1194C202.822 19.2953 202.399 19.3818 201.982 19.3818V12.3379ZM199.122 13.5339C198.262 14.3936 197.967 15.4616 197.967 16.3533H205.011C205.011 16.9709 204.798 17.8196 204.103 18.5148L199.122 13.5339ZM197.967 16.3533V34.0369H205.011V16.3533H197.967ZM197.967 34.0369C197.967 34.9361 198.255 35.8009 198.795 36.5202L204.43 32.2939C204.805 32.7938 205.011 33.412 205.011 34.0369H197.967ZM199.499 37.2246C200.218 37.7641 201.083 38.0524 201.982 38.0524V31.0084C202.607 31.0084 203.225 31.2145 203.725 31.5895L199.499 37.2246Z" fill="url(#paint0_linear_66_2160)" mask="url(#path-3-outside-2_66_2160)"/>
<defs>
<linearGradient id="paint0_linear_66_2160" x1="114" y1="0" x2="114" y2="49" gradientUnits="userSpaceOnUse">
<stop stop-color="#FF3980"/>
<stop offset="1" stop-color="#4B2EA7"/>
</linearGradient>
</defs>
</svg>
